# xmcd
#
# Track frame offsets:
#	150
#	17112
#	47007
#	64010
#	80195
#	100457
#	119137
#	140092
#	159122
#	182185
#
# Disc length: 2730 seconds
#
# Revision: 1
# Processed by: cddbd v1.5.2PL0 Copyright (c) Steve Scherf et al.
# Submitted via: EZCDAudioConverter 8.0.2.1
#
DISCID=8f0aa80a
DTITLE=Thanh Hà - Ước hẹn
DYEAR=1995
DGENRE=
TTITLE0=Ước hẹn
TTITLE1=Sao đành xa em
TTITLE2=Tan tác
TTITLE3=Nếu xa nhau
TTITLE4=Tháng sáu trời mưa
TTITLE5=Tuyết rơi
TTITLE6=Chờ phone của anh
TTITLE7=Dấu tình sầu
TTITLE8=Trưng vương khung cửa mùa thu
TTITLE9=Tuổi biết buồn
EXTD=
EXTT0=
EXTT1=
EXTT2=
EXTT3=
EXTT4=
EXTT5=
EXTT6=
EXTT7=
EXTT8=
EXTT9=
PLAYORDER=
